<?xml version="1.0" encoding="UTF-8"?>
<svg id="Layer_2" xmlns="http://www.w3.org/2000/svg" version="1.1" viewBox="0 0 11 16">
  <!-- Generator: Adobe Illustrator 30.6.0, SVG Export Plug-In . SVG Version: 2.1.4 Build 109)  -->
  <path d="M11,.88c0-.48-.39-.88-.88-.88H2.45C.96,0,0,1.21,0,2.69v12.43c0,.48.39.88.88.88h3.25c.48,0,.88-.39.88-.88V5.9c0-.48.39-.91.88-.91h4.25c.48,0,.88-.39.88-.88V.88Z"/>
  <path d="M6.61,10.98h3.77c.34,0,.61-.27.61-.61v-3.75c0-.56-.69-.83-1.07-.41l-3.77,3.75c-.36.4-.08,1.03.46,1.03Z"/>
</svg>