<?xml version="1.0" encoding="UTF-8"?>
<svg id="Padlock-Square-1--Streamline-Core" xmlns="http://www.w3.org/2000/svg" version="1.1" viewBox="0 0 21 24">
  <!-- Generator: Adobe Illustrator 30.6.0, SVG Export Plug-In . SVG Version: 2.1.4 Build 109)  -->
  <defs>
    <style>
      .st0 {
        fill-rule: evenodd;
      }
    </style>
  </defs>
  <g id="padlock-square-1--combination-combo-lock-locked-padlock-secure-security-shield-keyhole">
    <path id="Subtract" class="st0" d="M10.5,3.43c-1.93,0-3.5,1.54-3.5,3.43v1.71h7v-1.71c0-1.89-1.57-3.43-3.5-3.43ZM3.5,6.86v1.71h-.87c-1.45,0-2.63,1.15-2.63,2.57v10.29c0,1.42,1.18,2.57,2.63,2.57h15.75c1.45,0,2.62-1.15,2.62-2.57v-10.29c0-1.42-1.18-2.57-2.63-2.57h-.87v-1.71c0-3.79-3.13-6.86-7-6.86S3.5,3.07,3.5,6.86Z"/>
  </g>
</svg>