<?xml version="1.0" encoding="UTF-8"?>
<svg id="Layer_2" xmlns="http://www.w3.org/2000/svg" version="1.1" viewBox="0 0 18 16">
  <!-- Generator: Adobe Illustrator 30.6.0, SVG Export Plug-In . SVG Version: 2.1.4 Build 109)  -->
  <path d="M7.68,2.21c2.04-.51,4.18.2,5.56,1.85.36.42.98.46,1.38.09.4-.38.44-1.02.08-1.45C12.85.49,9.97-.46,7.23.22,4.45.95,2.25,3.16,1.46,6.04c-.03.1-.12.16-.21.15l-.81-.11c-.15-.02-.29.05-.37.18-.08.13-.09.3-.01.43l1.94,3.56c.06.11.17.19.29.2.02,0,.03,0,.05,0,.11,0,.21-.04.28-.12l2.72-2.95c.15-.16.15-.42,0-.58-.06-.06-.14-.1-.23-.11l-1.47-.19c-.11-.02-.18-.12-.17-.23,0-.01,0-.03,0-.04.67-1.99,2.25-3.5,4.21-4.02Z"/>
  <path d="M17.94,9.72c.08-.13.09-.3.01-.43l-1.96-3.55c-.06-.11-.17-.19-.29-.2-.12-.02-.25.03-.33.12l-2.71,2.96c-.15.16-.14.42.01.58.06.06.14.1.22.11l1.45.18c.06,0,.11.04.14.1.03.05.04.12.02.18-.67,1.99-2.25,3.5-4.21,4.02-2.04.51-4.18-.2-5.56-1.85-.35-.43-.97-.49-1.38-.12-.41.37-.47,1.01-.12,1.44,0,.01.02.02.03.04,1.86,2.21,4.74,3.16,7.48,2.48,2.78-.73,4.98-2.95,5.77-5.84.03-.1.12-.16.21-.15l.83.1s.03,0,.05,0c.13,0,.25-.07.33-.18Z"/>
</svg>